<?xml version="1.0" encoding="iso-8859-1"?>
<!-- Generator: Adobe Illustrator 19.0.0, SVG Export Plug-In . SVG Version: 6.00 Build 0)  -->
<svg version="1.1" id="Capa_1" xmlns="http://www.w3.org/2000/svg" xmlns:xlink="http://www.w3.org/1999/xlink" x="0px" y="0px"
	 viewBox="0 0 512 512" style="enable-background:new 0 0 512 512;" xml:space="preserve">
<g>
	<g>
		<path d="M426.141,420.059c-4.143,0-7.5,3.358-7.5,7.5v63.051c0,3.522-2.865,6.388-6.388,6.388h-39.797V373.482
			c0-4.142-3.357-7.5-7.5-7.5s-7.5,3.358-7.5,7.5v123.517h-74.846l3.839-27.623h11.346c10.903,0,19.773-8.871,19.773-19.773v-27.272
			c0-10.903-8.871-19.772-19.773-19.772h-3.177c2.633-5.629,4.03-11.813,4.03-18.237c0-23.779-19.346-43.126-43.125-43.126
			c-31.511,0-52.412,32.898-39.093,61.363c-13.098,0-20.905,9.572-20.905,19.772v27.272c0,10.903,8.87,19.773,19.772,19.773h11.347
			l3.84,27.623H207.72v0c-4.143,0-7.5,3.358-7.5,7.5c0,4.142,3.357,7.5,7.5,7.5c4.505,0,198.797,0,204.532,0
			c11.794,0,21.389-9.595,21.389-21.389V427.56C433.642,423.418,430.285,420.059,426.141,420.059z M255.522,356.197
			c15.508,0,28.124,12.617,28.124,28.125c0,6.778-2.368,13.155-6.723,18.237h-42.801c-4.354-5.082-6.722-11.459-6.722-18.237
			C227.399,368.813,240.015,356.197,255.522,356.197z M215.296,454.375c-2.631,0.001-4.771-2.14-4.771-4.772v-27.272
			c0-2.631,2.141-4.771,4.771-4.771h82.497c2.632,0,4.772,2.141,4.772,4.771v27.272c0,2.631-2.141,4.772-4.772,4.772
			C291,454.375,222.226,454.375,215.296,454.375z M267.463,496.999h-21.836l-3.839-27.623h29.515L267.463,496.999z"/>
	</g>
</g>
<g>
	<g>
		<path d="M392.979,283.957c-0.036-0.015-0.073-0.03-0.11-0.044l-92.611-36.365l-0.001-20.835
			c15.171-11.433,25.689-28.702,28.228-48.437c0.136,0.002,0.271,0.015,0.406,0.015c17.987,0,32.621-14.634,32.621-32.622
			c0-9.209-3.833-17.531-9.978-23.47V95.587C351.536,42.879,308.655,0,255.949,0c-52.704,0-95.583,42.879-95.583,95.585v26.613
			c-21.26,20.553-6.222,56.596,23.05,56.09c2.543,19.731,13.061,36.996,28.229,48.426v20.872l-92.516,36.326
			c-0.037,0.014-0.074,0.029-0.11,0.044c-1.66,0.683-40.661,17.241-40.661,62.799v143.856c0,11.795,9.596,21.389,21.389,21.389
			h72.971c4.143,0,7.5-3.358,7.5-7.5c0-4.142-3.357-7.5-7.5-7.5h-18.064V373.482c0-4.142-3.357-7.5-7.5-7.5s-7.5,3.358-7.5,7.5
			v123.517H99.747c-3.522,0-6.388-2.866-6.388-6.388V346.755c0-35.049,29.638-48.19,31.33-48.91l56.934-22.355l41.242,50.09
			c2.857,3.471,8.117,3.664,11.222,0.406l21.04-22.086l21.04,22.086c3.108,3.262,8.367,3.061,11.222-0.406l41.669-50.608
			l58.241,22.869c1.87,0.799,31.341,13.965,31.341,48.915v45.803c0,4.142,3.357,7.5,7.5,7.5s7.5-3.358,7.5-7.5v-45.803
			C433.641,301.198,394.639,284.64,392.979,283.957z M339.552,131.648c4.219,3.225,6.959,8.301,6.959,14.02
			c0,9.647-7.792,17.507-17.412,17.619v-35.248c0.147,0.001,0.294,0.013,0.441,0.018c0.339,0.012,0.675,0.03,1.009,0.061
			c0.305,0.029,0.607,0.068,0.91,0.114c0.162,0.023,0.322,0.051,0.483,0.079c2.71,0.488,5.32,1.615,7.557,3.304
			C339.517,131.627,339.535,131.636,339.552,131.648z M165.39,145.667c0-9.653,7.786-17.447,17.328-17.624
			c0.005,7.238,0.067,18.836,0.08,35.259C173.183,163.202,165.39,155.329,165.39,145.667z M184.916,108.385
			c-0.932,1.353-1.459,2.833-1.755,4.648c-1.387-0.032-4.486,0.109-7.794,0.905V95.585h0c0-44.435,36.148-80.584,80.582-80.584
			c44.436,0,80.586,36.149,80.586,80.584v18.351c-2.553-0.614-5.185-0.894-7.434-0.906c0.006-7.785-0.066-6.28-24.732-32.778
			c-4.167-4.481-11.068-5.423-16.315-1.946c-25.951,17.161-59.813,27.053-91.542,24.56
			C191.574,102.473,187.1,105.151,184.916,108.385z M197.801,169.015c0-0.578-0.009-50.446,0.01-51.024
			c33.94,2.053,69.361-8.404,96.888-26.112c11.427,12.267,17.348,18.457,19.399,20.905c0,6.863,0,49.581,0,56.229
			c0,22.061-12.625,41.553-31.536,51.102C246.584,238.276,197.801,214.92,197.801,169.015z M229.065,309.509l-32.759-39.785
			l15.637-6.14c0.085,0.384,0.192,0.762,0.312,1.135c0.034,0.107,0.074,0.212,0.111,0.318c0.1,0.285,0.209,0.566,0.328,0.843
			c0.047,0.108,0.093,0.216,0.142,0.323c0.162,0.347,0.335,0.688,0.526,1.019c0.011,0.018,0.019,0.036,0.028,0.053
			c0.203,0.347,0.428,0.681,0.663,1.008c0.068,0.095,0.141,0.186,0.212,0.278c0.182,0.239,0.373,0.472,0.573,0.699
			c0.08,0.09,0.158,0.182,0.241,0.27c0.277,0.297,0.565,0.586,0.873,0.858c7.367,6.488,13.06,11.533,17.483,15.452
			c0.847,0.751,1.641,1.454,2.409,2.134c3.186,2.822,5.596,4.951,7.467,6.578L229.065,309.509z M255.018,284.838
			c-4.018-3.418-12.56-11.092-28.373-25.023c0-10.957,0-5.532,0-24.398c15.714,7.084,38.434,8.451,58.611-0.001
			c0,27.046,0,16.76,0,24.308c-1.891,1.89-6.691,6.087-13.885,12.378c-4.058,3.548-9.115,7.97-15.422,13.521
			C255.669,285.389,255.358,285.128,255.018,284.838z M281.19,309.509l-13.532-14.206c5.456-4.797,9.936-8.714,13.589-11.909
			c11.937-10.438,14.78-12.931,16.637-15.346c0.07-0.091,0.145-0.184,0.211-0.274c0.239-0.325,0.461-0.648,0.656-0.969
			c0.02-0.031,0.034-0.063,0.053-0.094c0.173-0.29,0.326-0.581,0.465-0.872c0.047-0.098,0.09-0.196,0.133-0.294
			c0.107-0.243,0.202-0.489,0.287-0.736c0.031-0.091,0.066-0.182,0.095-0.275c0.098-0.315,0.184-0.633,0.249-0.961l14.343,5.631
			L281.19,309.509z"/>
	</g>
</g>
<g>
</g>
<g>
</g>
<g>
</g>
<g>
</g>
<g>
</g>
<g>
</g>
<g>
</g>
<g>
</g>
<g>
</g>
<g>
</g>
<g>
</g>
<g>
</g>
<g>
</g>
<g>
</g>
<g>
</g>
</svg>
